<?xml version="1.0" encoding="iso-8859-1"?>
<!-- Generator: Adobe Illustrator 19.0.0, SVG Export Plug-In . SVG Version: 6.00 Build 0)  -->
<svg version="1.1" id="Capa_1" xmlns="http://www.w3.org/2000/svg" xmlns:xlink="http://www.w3.org/1999/xlink" x="0px" y="0px"
	 viewBox="0 0 512 512" style="enable-background:new 0 0 512 512;" xml:space="preserve">
<g>
	<path style="fill:#FF8383;" d="M143.933,354.673L35.813,107.307c-0.658-1.506,1.442-2.654,2.354-1.287L204.07,354.673H143.933z"/>
	<path style="fill:#FF8383;" d="M465.316,175.397h-82.594l14.256-50.23l69.798,45.278
		C469.028,171.906,467.997,175.397,465.316,175.397z"/>
</g>
<polygon style="fill:#FF5A59;" points="396.978,125.167 382.722,175.397 324.839,379.38 209.452,379.38 327.15,175.397 
	367.246,105.879 "/>
<polygon style="fill:#CE3A4C;" points="275.342,265.186 209.452,379.38 324.839,379.38 333.285,349.615 "/>
<path style="fill:#FF8383;" d="M324.84,379.382H97.183l88.763-182.306c2.552-5.242,9.811-5.782,13.11-0.974L324.84,379.382z"/>
<path style="fill:#FF5A59;" d="M185.822,196.6L34.544,488.454c-1.282,2.474,1.576,5.027,3.89,3.476l249.059-166.966l-88.647-129.167
	C195.595,191.059,188.466,191.499,185.822,196.6z"/>
<g>
	<path style="fill:#8BA7BC;" d="M317.837,453.689c-4.087,0-7.399-3.312-7.399-7.399v-18.969c0-4.087,3.312-7.399,7.399-7.399
		c4.087,0,7.399,3.312,7.399,7.399v18.969C325.236,450.377,321.924,453.689,317.837,453.689z"/>
	<path style="fill:#8BA7BC;" d="M317.837,512c-4.087,0-7.399-3.312-7.399-7.399v-18.968c0-4.087,3.312-7.399,7.399-7.399
		c4.087,0,7.399,3.312,7.399,7.399v18.968C325.236,508.688,321.924,512,317.837,512z"/>
	<path style="fill:#8BA7BC;" d="M356.478,473.36h-18.969c-4.087,0-7.399-3.312-7.399-7.399s3.312-7.399,7.399-7.399h18.969
		c4.087,0,7.399,3.312,7.399,7.399S360.565,473.36,356.478,473.36z"/>
	<path style="fill:#8BA7BC;" d="M298.166,473.36h-18.968c-4.087,0-7.399-3.312-7.399-7.399s3.312-7.399,7.399-7.399h18.968
		c4.087,0,7.399,3.312,7.399,7.399S302.252,473.36,298.166,473.36z"/>
	<path style="fill:#8BA7BC;" d="M431.734,299.44c-4.087,0-7.399-3.312-7.399-7.399v-18.969c0-4.087,3.312-7.399,7.399-7.399
		c4.087,0,7.399,3.312,7.399,7.399v18.969C439.133,296.128,435.821,299.44,431.734,299.44z"/>
	<path style="fill:#8BA7BC;" d="M431.734,357.751c-4.087,0-7.399-3.312-7.399-7.399v-18.968c0-4.087,3.312-7.399,7.399-7.399
		c4.087,0,7.399,3.312,7.399,7.399v18.968C439.133,354.439,435.821,357.751,431.734,357.751z"/>
	<path style="fill:#8BA7BC;" d="M470.375,319.112h-18.969c-4.087,0-7.399-3.312-7.399-7.399c0-4.087,3.312-7.399,7.399-7.399h18.969
		c4.087,0,7.399,3.312,7.399,7.399S474.461,319.112,470.375,319.112z"/>
	<path style="fill:#8BA7BC;" d="M412.063,319.112h-18.968c-4.087,0-7.399-3.312-7.399-7.399c0-4.087,3.312-7.399,7.399-7.399h18.968
		c4.087,0,7.399,3.312,7.399,7.399C419.461,315.8,416.149,319.112,412.063,319.112z"/>
	<path style="fill:#8BA7BC;" d="M97.183,33.766c-4.086,0-7.399-3.312-7.399-7.399V7.399C89.784,3.312,93.096,0,97.183,0
		c4.086,0,7.399,3.312,7.399,7.399v18.968C104.581,30.454,101.269,33.766,97.183,33.766z"/>
	<path style="fill:#8BA7BC;" d="M97.183,92.078c-4.086,0-7.399-3.312-7.399-7.399V65.71c0-4.087,3.313-7.399,7.399-7.399
		s7.399,3.312,7.399,7.399v18.969C104.581,88.766,101.269,92.078,97.183,92.078z"/>
	<path style="fill:#8BA7BC;" d="M135.823,53.437h-18.969c-4.086,0-7.399-3.312-7.399-7.399s3.313-7.399,7.399-7.399h18.969
		c4.086,0,7.399,3.312,7.399,7.399S139.909,53.437,135.823,53.437z"/>
	<path style="fill:#8BA7BC;" d="M77.511,53.437H58.542c-4.086,0-7.399-3.312-7.399-7.399s3.313-7.399,7.399-7.399h18.969
		c4.086,0,7.399,3.312,7.399,7.399S81.597,53.437,77.511,53.437z"/>
</g>
<g>
</g>
<g>
</g>
<g>
</g>
<g>
</g>
<g>
</g>
<g>
</g>
<g>
</g>
<g>
</g>
<g>
</g>
<g>
</g>
<g>
</g>
<g>
</g>
<g>
</g>
<g>
</g>
<g>
</g>
</svg>
