<svg height="423pt" viewBox="-82 0 423 423.25504" width="423pt" xmlns="http://www.w3.org/2000/svg"><path d="m129.835938 6.828125c-67.863282 0-122.878907 53.484375-122.878907 119.464844v51.199219h245.757813v-51.199219c0-65.980469-55.015625-119.464844-122.878906-119.464844zm0 0" fill="#fff"/><path d="m129.835938 6.828125v-6.828125c-35.738282-.00390625-68.175782 14.097656-91.648438 36.921875-23.476562 22.8125-38.0625 54.460937-38.058594 89.371094v51.199219c0 1.824218.710938 3.539062 2 4.828124 1.289063 1.289063 3.003906 1.996094 4.828125 1.996094h245.757813c1.824218 0 3.539062-.707031 4.828125-1.996094 1.289062-1.289062 2-3.003906 2-4.828124v-51.199219c.003906-34.910157-14.582031-66.558594-38.058594-89.371094-23.472656-22.824219-55.90625-36.92578125-91.648437-36.921875v13.652344c32.121093.003906 61.128906 12.644531 82.128906 33.058594 21 20.425781 33.917968 48.511718 33.925781 79.582031v44.371093h-232.109375v-44.371093c.007812-31.070313 12.929688-59.15625 33.925781-79.582031 21-20.414063 50.007813-33.054688 82.128907-33.058594zm0 0" fill="#54596e"/><path d="m211.757812 177.492188c0-11.3125-9.171874-20.480469-20.484374-20.480469s-20.476563 9.167969-20.476563 20.480469h-20.824219c.160156-1.121094.34375-2.238282.34375-3.414063 0-13.191406-10.695312-23.890625-23.890625-23.890625-7.917969 0-14.878906 3.890625-19.230469 9.824219-4.152343-9.785157-13.847656-16.652344-25.144531-16.652344-11.039062 0-20.488281 6.582031-24.796875 16.003906-2.808594-1.449219-5.957031-2.351562-9.339844-2.351562-11.308593 0-20.480468 9.167969-20.480468 20.480469h-20.476563v238.933593h245.753907v-238.933593z" fill="#f99"/><path d="m211.757812 177.492188h6.828126c-.007813-15.085938-12.226563-27.304688-27.3125-27.304688-15.078126 0-27.300782 12.21875-27.304688 27.304688h6.828125v-6.824219h-20.824219v6.824219l6.761719.964843c.132813-1.027343.398437-2.488281.40625-4.378906 0-16.964844-13.75-30.714844-30.71875-30.71875-10.195313 0-19.199219 5.039063-24.734375 12.613281l5.507812 4.039063 6.28125-2.671875c-5.183593-12.222656-17.308593-20.800782-31.429687-20.804688-13.8125.007813-25.648437 8.242188-31.007813 19.992188l6.210938 2.835937 3.136719-6.0625c-3.625-1.875-7.867188-3.117187-12.472657-3.113281-15.085937 0-27.300781 12.21875-27.304687 27.304688h6.824219v-6.820313h-20.476563c-1.800781 0-3.554687.722656-4.828125 1.996094-1.269531 1.269531-2 3.03125-2 4.824219v238.933593c0 1.820313.707032 3.539063 2 4.828125 1.289063 1.292969 3.007813 2 4.828125 2h245.753907c1.828124 0 3.542968-.707031 4.828124-2 1.296876-1.289062 2.003907-3.007812 2.003907-4.828125v-238.933593c0-1.792969-.730469-3.554688-2.003907-4.824219-1.269531-1.273438-3.027343-1.996094-4.828124-1.996094h-40.953126v6.820313h6.828126-6.828126v6.824218h34.132813v225.285156h-232.109375v-225.285156h13.652344c1.820312 0 3.539062-.707031 4.828125-1.996094 1.292969-1.289062 2-3.007812 2-4.828124.011719-7.539063 6.117187-13.640626 13.652343-13.652344 2.164063 0 4.207032.5625 6.207032 1.589844 1.664062.859374 3.589844.996093 5.359375.386718 1.773437-.613281 3.203125-1.90625 3.980469-3.613281 3.257812-7.097656 10.324218-12.019531 18.585937-12.015625 8.480469-.007812 15.738281 5.152344 18.867187 12.488281.957032 2.269531 3.046876 3.828125 5.496094 4.113281 2.441406.285157 4.839844-.757812 6.292969-2.742187 3.15625-4.289063 8.085937-7.027344 13.722656-7.035156 9.417969.019531 17.046875 7.644531 17.0625 17.070312.007813.453125-.09375 1.234375-.273437 2.449219-.277344 1.957031.308594 3.945312 1.601562 5.441406 1.300782 1.488282 3.183594 2.34375 5.15625 2.34375h20.828125c1.820313 0 3.53125-.703125 4.820313-1.992187 1.292968-1.289063 2.003906-3.007813 2.003906-4.828125.015625-7.539063 6.113281-13.640625 13.652344-13.652344 7.535156.011719 13.640625 6.113281 13.652344 13.652344 0 1.820312.714843 3.539062 2.003906 4.828125 1.292968 1.289062 3.003906 1.992187 4.828125 1.992187v-6.824218" fill="#54596e"/><path d="m13.78125 302.179688v107.421874h232.109375v-107.421874c-16.734375 46.648437-62.371094 80.117187-116.054687 80.117187-53.679688 0-99.320313-33.472656-116.054688-80.117187" fill="#e68f93"/><path d="m252.714844 262.824219c0 13.789062-2.402344 27.03125-6.824219 39.355469v107.421874h-232.109375v-107.421874c-4.421875-12.324219-6.824219-25.566407-6.824219-39.355469v153.601562h245.753907v-153.601562" fill="#54596e"/><path d="m75.222656 211.625c0 30.164062 24.449219 54.613281 54.613282 54.613281 30.164062 0 54.613281-24.449219 54.613281-54.613281zm0 0" fill="#fff"/><path d="m75.222656 211.625h-6.828125c.007813 33.933594 27.503907 61.4375 61.441407 61.441406 33.9375-.003906 61.433593-27.507812 61.441406-61.441406 0-1.796875-.730469-3.554688-2-4.828125-1.269532-1.269531-3.03125-1.996094-4.828125-1.996094h-109.226563c-1.796875 0-3.558594.726563-4.828125 1.996094-1.269531 1.273437-2 3.03125-2 4.828125h6.828125v6.828125h109.226563v-6.828125h-6.828125c0 13.21875-5.335938 25.121094-13.996094 33.792969-8.667969 8.65625-20.570312 13.992187-33.789062 13.996093-13.21875-.003906-25.121094-5.339843-33.789063-13.996093-8.660156-8.671875-13.996094-20.574219-13.996094-33.792969h-6.828125v6.828125zm0 0" fill="#54596e"/><path d="m54.742188 218.453125h150.1875c3.769531 0 6.828124-3.054687 6.828124-6.828125 0-3.769531-3.058593-6.824219-6.828124-6.824219h-150.1875c-3.769532 0-6.828126 3.054688-6.828126 6.824219 0 3.773438 3.058594 6.828125 6.828126 6.828125" fill="#54596e"/><path d="m198.101562 109.226562c0 11.3125-9.167968 20.480469-20.480468 20.480469-11.308594 0-20.480469-9.167969-20.480469-20.480469s9.171875-20.480468 20.480469-20.480468c11.3125 0 20.480468 9.167968 20.480468 20.480468zm0 0" fill="#f99"/><path d="m198.101562 109.226562h6.828126c-.003907-15.085937-12.222657-27.304687-27.308594-27.304687-15.082032 0-27.300782 12.21875-27.304688 27.304687.003906 15.082032 12.222656 27.300782 27.304688 27.304688 15.085937-.003906 27.304687-12.222656 27.308594-27.304688h-13.652344c-.015625 7.535157-6.117188 13.636719-13.65625 13.652344-7.535156-.015625-13.636719-6.117187-13.652344-13.652344.015625-7.535156 6.117188-13.640624 13.652344-13.65625 7.539062.015626 13.640625 6.121094 13.65625 13.65625zm0 0" fill="#54596e"/><path d="m102.527344 81.921875c0 3.769531-3.054688 6.824219-6.824219 6.824219s-6.828125-3.054688-6.828125-6.824219c0-3.773437 3.058594-6.828125 6.828125-6.828125s6.824219 3.054688 6.824219 6.828125zm0 0" fill="#f99"/><path d="m102.527344 81.921875h6.828125c-.003907-7.546875-6.109375-13.652344-13.652344-13.65625-7.542969.003906-13.648437 6.109375-13.652344 13.65625.003907 7.542969 6.109375 13.644531 13.652344 13.648437 7.542969-.003906 13.648437-6.105468 13.652344-13.648437h-13.652344v-.003906.003906zm0 0" fill="#54596e"/><path d="m54.742188 122.878906c0 7.542969-6.113282 13.65625-13.652344 13.65625-7.542969 0-13.652344-6.113281-13.652344-13.65625 0-7.539062 6.109375-13.652344 13.652344-13.652344 7.539062 0 13.652344 6.113282 13.652344 13.652344zm0 0" fill="#f99"/><path d="m54.742188 122.878906h6.828124c-.007812-11.3125-9.167968-20.476562-20.480468-20.480468-11.3125.003906-20.476563 9.167968-20.480469 20.480468.003906 11.316406 9.167969 20.476563 20.480469 20.480469 11.3125-.003906 20.472656-9.164063 20.480468-20.480469h-13.65625c-.003906 3.765625-3.058593 6.820313-6.824218 6.828125-3.765625-.007812-6.820313-3.0625-6.828125-6.828125.007812-3.765625 3.0625-6.820312 6.828125-6.828125 3.765625.007813 6.820312 3.0625 6.824218 6.828125zm0 0" fill="#54596e"/><path d="m143.488281 47.785156c0 7.542969-6.113281 13.65625-13.652343 13.65625-7.539063 0-13.652344-6.113281-13.652344-13.65625 0-7.539062 6.113281-13.652344 13.652344-13.652344 7.539062 0 13.652343 6.113282 13.652343 13.652344zm0 0" fill="#f99"/><path d="m143.488281 47.785156h6.828125c-.003906-11.3125-9.167968-20.476562-20.480468-20.476562s-20.476563 9.164062-20.480469 20.476562c.003906 11.316406 9.167969 20.476563 20.480469 20.480469 11.3125-.003906 20.476562-9.164063 20.480468-20.480469h-13.652344c-.007812 3.765625-3.0625 6.820313-6.828124 6.828125-3.765626-.007812-6.820313-3.0625-6.828126-6.828125.007813-3.765625 3.0625-6.816406 6.828126-6.828125 3.765624.011719 6.820312 3.0625 6.828124 6.828125zm0 0" fill="#54596e"/><path d="m109.355469 218.453125c0 11.308594 9.171875 20.480469 20.480469 20.480469 11.308593 0 20.480468-9.171875 20.480468-20.480469" fill="#54596e"/><g fill="#e68f93"><path d="m198.105469 279.894531c-7.542969 0-13.65625 6.109375-13.65625 13.652344s6.113281 13.652344 13.65625 13.652344c7.535156 0 13.652343-6.109375 13.652343-13.652344s-6.117187-13.652344-13.652343-13.652344"/><path d="m153.730469 320.851562c-9.429688 0-17.066407 7.644532-17.066407 17.070313 0 9.421875 7.636719 17.0625 17.066407 17.0625 9.425781 0 17.070312-7.640625 17.070312-17.0625 0-9.425781-7.644531-17.070313-17.070312-17.070313"/><path d="m78.636719 286.71875c-5.65625 0-10.238281 4.585938-10.238281 10.238281 0 5.660157 4.582031 10.242188 10.238281 10.242188 5.652343 0 10.242187-4.582031 10.242187-10.242188 0-5.652343-4.589844-10.238281-10.242187-10.238281"/><path d="m37.675781 232.109375c-5.652343 0-10.242187 4.582031-10.242187 10.238281 0 5.652344 4.589844 10.242188 10.242187 10.242188 5.65625 0 10.238281-4.585938 10.238281-10.242188s-4.582031-10.238281-10.238281-10.238281"/></g></svg>